# xmcd
#
# Track frame offsets:
#	150
#	15870
#	31240
#	46594
#	59717
#	75066
#	91438
#	106322
#	120743
#	135045
#	150265
#	166366
#
# Disc length: 2409 seconds
#
# Revision: 1
# Processed by: cddbd v1.5.2PL0 Copyright (c) Steve Scherf et al.
# Submitted via: audiograbber 1.83.01
#
DISCID=7609670c
DTITLE=Andy Martin - Lost Highway
DYEAR=2012
DGENRE=Country
TTITLE0=Lost Highway
TTITLE1=Dark Hollow
TTITLE2=Fool's Thin Air
TTITLE3=They Call Me The Breeze
TTITLE4=Blue Ridge Mountain Girl
TTITLE5=Blue Trail Of Sorrow
TTITLE6=Once More
TTITLE7=Grapes On The Vine
TTITLE8=The Heart That You Own
TTITLE9=Are You Teasing Me
TTITLE10=Walkin' On The Moon
TTITLE11=The Walkin' Blues
EXTD=
EXTT0=
EXTT1=
EXTT2=
EXTT3=
EXTT4=
EXTT5=
EXTT6=
EXTT7=
EXTT8=
EXTT9=
EXTT10=
EXTT11=
PLAYORDER=
